# xmcd CD database file
#
# Track frame offsets:
#	150
#	12184
#	25726
#	39471
#	52788
#	71709
#	87396
#	105314
#	120851
#	142599
#	158904
#	180168
#
# Disc length: 2964 seconds
#
# Revision: 0
# Processed by: cddbd v1.5.1PL0 Copyright (c) Steve Scherf et al.
# Submitted via: CDex 1.51
#
DISCID=7e0b920c
DTITLE=Cindy O'Neil - Flight
DYEAR=1998
DGENRE=Jazz
TTITLE0=William
TTITLE1=Livin Right
TTITLE2=Firewater
TTITLE3=Where and When
TTITLE4=Take This Wish
TTITLE5=Mind Machine
TTITLE6=Old Fashioned
TTITLE7=Does One Win
TTITLE8=Flight
TTITLE9=Before the Mist
TTITLE10=Infatuation II
TTITLE11=Data
EXTD=YEAR: 1998
EXTT0=
EXTT1=
EXTT2=
EXTT3=
EXTT4=
EXTT5=
EXTT6=
EXTT7=
EXTT8=
EXTT9=
EXTT10=
EXTT11=
PLAYORDER=
